<?xml version="1.0" encoding="UTF-8"?>
<svg width="392px" height="392px" viewBox="0 0 392 392" version="1.1" xmlns="http://www.w3.org/2000/svg" xmlns:xlink="http://www.w3.org/1999/xlink">
    <!-- Generator: Sketch 46.1 (44463) - http://www.bohemiancoding.com/sketch -->
    <title>Combined Shape</title>
    <desc>Created with Sketch.</desc>
    <defs></defs>
    <g id="Page-1" stroke="none" stroke-width="1" fill="none" fill-rule="evenodd" fill-opacity="0.75">
        <g id="Group-2" fill="#BE93B4">
            <path d="M196,392 C87.752189,392 0,304.247811 0,196 C0,87.752189 87.752189,0 196,0 C304.247811,0 392,87.752189 392,196 C392,304.247811 304.247811,392 196,392 Z M276.367017,255 C276.367017,253.607136 275.831308,252.375005 274.759874,251.303571 L199.867017,176.410714 C198.795583,175.33928 197.563452,174.803571 196.170588,174.803571 C194.777724,174.803571 193.545594,175.33928 192.47416,176.410714 L117.581303,251.303571 C116.509869,252.375005 115.97416,253.607136 115.97416,255 C115.97416,256.392864 116.509869,257.624995 117.581303,258.696429 L125.617017,266.732143 C126.688451,267.803577 127.920581,268.339286 129.313445,268.339286 C130.706309,268.339286 131.93844,267.803577 133.009874,266.732143 L196.170588,203.571429 L259.331303,266.732143 C260.402736,267.803577 261.634867,268.339286 263.027731,268.339286 C264.420595,268.339286 265.652726,267.803577 266.72416,266.732143 L274.759874,258.696429 C275.831308,257.624995 276.367017,256.392864 276.367017,255 Z M276.367017,193.285714 C276.367017,191.89285 275.831308,190.66072 274.759874,189.589286 L199.867017,114.696429 C198.795583,113.624995 197.563452,113.089286 196.170588,113.089286 C194.777724,113.089286 193.545594,113.624995 192.47416,114.696429 L117.581303,189.589286 C116.509869,190.66072 115.97416,191.89285 115.97416,193.285714 C115.97416,194.678578 116.509869,195.910709 117.581303,196.982143 L125.617017,205.017857 C126.688451,206.089291 127.920581,206.625 129.313445,206.625 C130.706309,206.625 131.93844,206.089291 133.009874,205.017857 L196.170588,141.857143 L259.331303,205.017857 C260.402736,206.089291 261.634867,206.625 263.027731,206.625 C264.420595,206.625 265.652726,206.089291 266.72416,205.017857 L274.759874,196.982143 C275.831308,195.910709 276.367017,194.678578 276.367017,193.285714 Z" id="Combined-Shape"></path>
        </g>
    </g>
</svg>