<svg xmlns="http://www.w3.org/2000/svg" viewBox="0 0 83.29 83.29"><defs><style>.cls-1{fill:#c84b57;}</style></defs><title>icon-call</title><g id="Layer_2" data-name="Layer 2"><g id="Layer_1-2" data-name="Layer 1"><path class="cls-1" d="M83.29,65.78a19.57,19.57,0,0,1-.59,4.17A23.5,23.5,0,0,1,81.45,74q-1.24,3-7.22,6.27a22.94,22.94,0,0,1-11,3,23.36,23.36,0,0,1-3.13-.21,24.28,24.28,0,0,1-3.4-.74q-1.86-.53-2.78-.86l-3.28-1.21q-2.37-.89-2.9-1.06a53.54,53.54,0,0,1-10.35-4.91A89,89,0,0,1,21.77,61.52,89.07,89.07,0,0,1,9,45.9,53.52,53.52,0,0,1,4.08,35.55Q3.9,35,3,32.65T1.8,29.37q-.33-.92-.86-2.78a24.23,24.23,0,0,1-.74-3.4A23.36,23.36,0,0,1,0,20.05a22.94,22.94,0,0,1,3-11q3.31-6,6.27-7.22A23.61,23.61,0,0,1,13.34.59,19.57,19.57,0,0,1,17.51,0a3.32,3.32,0,0,1,1.24.18q1.06.36,3.14,4.5.65,1.12,1.77,3.19t2.07,3.76q.95,1.69,1.83,3.17.18.24,1,1.48a16.71,16.71,0,0,1,1.27,2.1,3.87,3.87,0,0,1,.41,1.69,4.91,4.91,0,0,1-1.69,3,28.82,28.82,0,0,1-3.67,3.25,35.7,35.7,0,0,0-3.67,3.14q-1.69,1.66-1.69,2.72a4,4,0,0,0,.3,1.33,12.71,12.71,0,0,0,.5,1.21q.21.41.83,1.42t.68,1.12a62,62,0,0,0,10.29,13.9A62,62,0,0,0,46.08,61.4l1.12.68q1,.62,1.42.83a12.67,12.67,0,0,0,1.21.5,4,4,0,0,0,1.33.3q1.06,0,2.72-1.69A35.65,35.65,0,0,0,57,58.35a28.88,28.88,0,0,1,3.25-3.67,4.91,4.91,0,0,1,3-1.69,3.87,3.87,0,0,1,1.69.41A16.67,16.67,0,0,1,67,54.69l1.48,1q1.48.89,3.16,1.83t3.76,2.07q2.07,1.13,3.19,1.78,4.14,2.07,4.5,3.13A3.32,3.32,0,0,1,83.29,65.78Z"/></g></g></svg>