<svg xmlns="http://www.w3.org/2000/svg" viewBox="0 0 136.29 86.72"><defs><style>.cls-1{fill:#c84b57;}</style></defs><title>icon-googleplus</title><g id="Layer_2" data-name="Layer 2"><g id="Layer_1-2" data-name="Layer 1"><path class="cls-1" d="M85,44.36a45.69,45.69,0,0,1-5.15,21.92,37.1,37.1,0,0,1-14.67,15,43.4,43.4,0,0,1-21.83,5.41A42.55,42.55,0,0,1,26.5,83.29,42.41,42.41,0,0,1,3.43,60.22a43.14,43.14,0,0,1,0-33.72A42.41,42.41,0,0,1,26.5,3.43,42.54,42.54,0,0,1,43.36,0a41,41,0,0,1,29,11.36L60.63,22.66A23.88,23.88,0,0,0,43.36,16,25.9,25.9,0,0,0,29.9,19.64,27.42,27.42,0,0,0,16.5,43.36,27.42,27.42,0,0,0,29.9,67.08a25.89,25.89,0,0,0,13.46,3.67,28.57,28.57,0,0,0,9-1.36A22.9,22.9,0,0,0,59.15,66a24.63,24.63,0,0,0,4.64-4.64,21.21,21.21,0,0,0,2.9-4.91A22,22,0,0,0,68,52.05H43.36V37.15H84.29A38.52,38.52,0,0,1,85,44.36Zm51.29-7.22V49.57H123.92V61.93H111.5V49.57H99.14V37.15H111.5V24.78h12.42V37.15Z"/></g></g></svg>