<svg xmlns="http://www.w3.org/2000/svg" viewBox="0 0 80.79 106.07"><defs><style>.cls-1{fill:#c84b57;}</style></defs><title>icon-yelp</title><g id="Layer_2" data-name="Layer 2"><g id="Layer_1-2" data-name="Layer 1"><path class="cls-1" d="M31.87,63.21a4.15,4.15,0,0,1-3.08,4.14l-7.1,2.31Q5.43,74.87,4.42,74.87a3.76,3.76,0,0,1-3.19-2.13,13.93,13.93,0,0,1-1-4.44,48.44,48.44,0,0,1,.06-9.85q.53-5.35,1.77-7.37a3.5,3.5,0,0,1,3.31-1.89q.77,0,11.95,4.55l6.8,2.78,5,2a4.1,4.1,0,0,1,2.1,1.8A5.22,5.22,0,0,1,31.87,63.21ZM41,43.4q.29,6-3.19,7.22-3.43,1-6.74-4.2L8.68,11A3.74,3.74,0,0,1,9.81,7.37q2.42-2.54,12.27-5.29T35.36.22a3.61,3.61,0,0,1,2.9,2.66q.18,1.06,1.3,18.07T41,43.4Zm-.3,34.66v7.51q-.06,17.27-.36,18a3.75,3.75,0,0,1-3,2.37q-3.19.53-10.74-2.25T17,98.47a4.45,4.45,0,0,1-1-2.13,3.65,3.65,0,0,1,.24-1.54,17,17,0,0,1,2-2.78Q20,89.83,28.91,79.24s1.22-1.38,3.55-4.14a4,4,0,0,1,2.34-1.45,5.17,5.17,0,0,1,2.93.21,5,5,0,0,1,2.22,1.72A3.9,3.9,0,0,1,40.68,78.06ZM80.14,49.79a3.6,3.6,0,0,1-1.54,3.49q-.89.59-19.46,5.09-4,.89-5.38,1.36l.06-.12a4.07,4.07,0,0,1-2.72-.24,4.83,4.83,0,0,1-2.19-1.89,4.17,4.17,0,0,1,0-5.15s1.52-2,4.44-6q7.39-10.11,8.87-12.07a12.73,12.73,0,0,1,2-2.31,3.71,3.71,0,0,1,3.84-.12q2.84,1.36,7.28,7.9t4.79,9.91Zm.59,31Q80.31,84,75.32,90.3t-8,7.51a3.56,3.56,0,0,1-3.73-.41q-.83-.59-10.88-17l-2.78-4.55a4,4,0,0,1-.68-2.72,5.06,5.06,0,0,1,1.15-2.72,4.11,4.11,0,0,1,4.91-1.54s2.39.83,7,2.37q12,3.9,14.31,4.7a11.08,11.08,0,0,1,2.78,1.21A3.57,3.57,0,0,1,80.73,80.78Z"/></g></g></svg>