<svg xmlns="http://www.w3.org/2000/svg" viewBox="0 0 106 83.29"><defs><style>.cls-1{fill:#c84b57;}</style></defs><title>icon-email</title><g id="Layer_2" data-name="Layer 2"><g id="Layer_1-2" data-name="Layer 1"><path class="cls-1" d="M106,9.46a15.64,15.64,0,0,1-2.9,8.93,28.15,28.15,0,0,1-7.22,7.28L68.2,44.9l-2.51,1.8q-1.92,1.39-3.19,2.25t-3.08,1.92a17.9,17.9,0,0,1-3.4,1.6,9.39,9.39,0,0,1-3,.53h-.12a9.38,9.38,0,0,1-3-.53,17.87,17.87,0,0,1-3.4-1.6q-1.8-1.06-3.08-1.92T40.31,46.7L37.8,44.9Q32.41,41.11,22.3,34.1T10.17,25.67a29.35,29.35,0,0,1-6.92-6.83Q0,14.49,0,10.77A11.94,11.94,0,0,1,2.45,3.08,8.45,8.45,0,0,1,9.46,0H96.54a9.15,9.15,0,0,1,6.65,2.78A9.07,9.07,0,0,1,106,9.46Zm0,17.39v47a9.49,9.49,0,0,1-9.46,9.46H9.46a9.11,9.11,0,0,1-6.68-2.78A9.11,9.11,0,0,1,0,73.82v-47A31.34,31.34,0,0,0,6,32q21.41,14.55,29.4,20.41,3.37,2.48,5.47,3.87a33.58,33.58,0,0,0,5.59,2.84,17,17,0,0,0,6.51,1.45h.12a17,17,0,0,0,6.51-1.45,33.63,33.63,0,0,0,5.59-2.84q2.1-1.39,5.47-3.87Q80.68,45.13,100.08,32A32.65,32.65,0,0,0,106,26.85Z"/></g></g></svg>